<mxfile host="65bd71144e" modified="2021-01-27T17:08:24.753Z" agent="5.0 (Windows NT 10.0; Win64; x64) AppleWebKit/537.36 (KHTML, like Gecko) Code/1.51.0 Chrome/83.0.4103.122 Electron/9.3.3 Safari/537.36" etag="9nVb1PzIcJHEw4docfrE" version="13.10.0" type="embed">
    <diagram id="RAtAKVSGtvp2yvZ8-tFf" name="Page-1">
        <mxGraphModel dx="1147" dy="790" grid="0" gridSize="10" guides="1" tooltips="1" connect="1" arrows="1" fold="1" page="1" pageScale="1" pageWidth="850" pageHeight="1100" background="#FFFFFF" math="0" shadow="0">
            <root>
                <mxCell id="0"/>
                <mxCell id="1" parent="0"/>
                <mxCell id="2" value="QREADS Webservice&lt;br&gt;(port 9780)" style="rounded=1;whiteSpace=wrap;html=1;strokeColor=#36393d;fillColor=#eeeeee;fontColor=#171717;" parent="1" vertex="1">
                    <mxGeometry x="125" y="347" width="120" height="60" as="geometry"/>
                </mxCell>
                <mxCell id="3" value="EPIC" style="rounded=1;whiteSpace=wrap;html=1;strokeColor=#36393d;fillColor=#eeeeee;fontColor=#171717;" parent="1" vertex="1">
                    <mxGeometry x="125" y="171" width="120" height="60" as="geometry"/>
                </mxCell>
                <mxCell id="4" value="" style="endArrow=classic;html=1;exitX=0.5;exitY=1;exitDx=0;exitDy=0;entryX=0.5;entryY=0;entryDx=0;entryDy=0;strokeColor=#36393d;fillColor=#eeeeee;fontColor=#171717;" parent="1" source="3" target="2" edge="1">
                    <mxGeometry width="50" height="50" relative="1" as="geometry">
                        <mxPoint x="290" y="390" as="sourcePoint"/>
                        <mxPoint x="340" y="340" as="targetPoint"/>
                    </mxGeometry>
                </mxCell>
                <mxCell id="5" value="QREADS - EPIC" style="rounded=1;whiteSpace=wrap;html=1;strokeColor=#36393d;fillColor=#eeeeee;fontColor=#171717;" parent="1" vertex="1">
                    <mxGeometry x="423" y="475" width="120" height="60" as="geometry"/>
                </mxCell>
                <mxCell id="6" value="MayoDock&lt;br&gt;QREADS&lt;br&gt;EPIC&lt;br&gt;" style="rounded=1;whiteSpace=wrap;html=1;strokeColor=#36393d;fillColor=#eeeeee;fontColor=#171717;" parent="1" vertex="1">
                    <mxGeometry x="423" y="34" width="120" height="60" as="geometry"/>
                </mxCell>
                <mxCell id="7" value="" style="endArrow=classic;html=1;exitX=0.5;exitY=1;exitDx=0;exitDy=0;entryX=0.5;entryY=0;entryDx=0;entryDy=0;strokeColor=#36393d;fillColor=#eeeeee;fontColor=#171717;" parent="1" source="2" target="26" edge="1">
                    <mxGeometry width="50" height="50" relative="1" as="geometry">
                        <mxPoint x="345" y="773" as="sourcePoint"/>
                        <mxPoint x="340" y="503" as="targetPoint"/>
                    </mxGeometry>
                </mxCell>
                <mxCell id="8" value="" style="endArrow=classic;html=1;exitX=0;exitY=0.5;exitDx=0;exitDy=0;entryX=0.5;entryY=0;entryDx=0;entryDy=0;strokeColor=#36393d;fillColor=#eeeeee;fontColor=#171717;" parent="1" source="6" target="3" edge="1">
                    <mxGeometry width="50" height="50" relative="1" as="geometry">
                        <mxPoint x="190" y="190" as="sourcePoint"/>
                        <mxPoint x="240" y="140" as="targetPoint"/>
                    </mxGeometry>
                </mxCell>
                <mxCell id="9" value="" style="endArrow=classic;html=1;exitX=0.5;exitY=1;exitDx=0;exitDy=0;entryX=0.5;entryY=0;entryDx=0;entryDy=0;strokeColor=#36393d;fillColor=#eeeeee;fontColor=#171717;" parent="1" source="6" target="10" edge="1">
                    <mxGeometry width="50" height="50" relative="1" as="geometry">
                        <mxPoint x="370" y="110" as="sourcePoint"/>
                        <mxPoint x="720" y="250" as="targetPoint"/>
                    </mxGeometry>
                </mxCell>
                <mxCell id="10" value="QREADS" style="rounded=1;whiteSpace=wrap;html=1;strokeColor=#36393d;fillColor=#eeeeee;fontColor=#171717;" parent="1" vertex="1">
                    <mxGeometry x="423" y="171" width="120" height="60" as="geometry"/>
                </mxCell>
                <mxCell id="14" value="User - Login" style="text;html=1;fillColor=#eeeeee;align=center;verticalAlign=middle;whiteSpace=wrap;rounded=0;strokeColor=#36393d;fontColor=#171717;" parent="1" vertex="1">
                    <mxGeometry x="185" y="576" width="120" height="20" as="geometry"/>
                </mxCell>
                <mxCell id="15" value="&lt;ul&gt;&lt;li&gt;New Instance of QREADS Webservice&lt;/li&gt;&lt;li&gt;New Instance of EPIC&lt;/li&gt;&lt;/ul&gt;" style="text;html=1;fillColor=#eeeeee;align=left;verticalAlign=middle;whiteSpace=wrap;rounded=0;strokeColor=#36393d;fontColor=#171717;" parent="1" vertex="1">
                    <mxGeometry x="125" y="596" width="260" height="60" as="geometry"/>
                </mxCell>
                <mxCell id="17" value="User - Switch" style="text;html=1;fillColor=#eeeeee;align=center;verticalAlign=middle;whiteSpace=wrap;rounded=0;strokeColor=#36393d;fontColor=#171717;" parent="1" vertex="1">
                    <mxGeometry x="555" y="576" width="120" height="20" as="geometry"/>
                </mxCell>
                <mxCell id="18" value="&lt;ul&gt;&lt;li&gt;Check if&amp;nbsp; QREADS Webservice is running. If found, no-action.&amp;nbsp; If not found, start new instance of QREADS webservice&amp;nbsp;&lt;/li&gt;&lt;/ul&gt;" style="text;html=1;fillColor=#eeeeee;align=left;verticalAlign=middle;whiteSpace=wrap;rounded=0;strokeColor=#36393d;fontColor=#171717;" parent="1" vertex="1">
                    <mxGeometry x="475" y="601" width="270" height="70" as="geometry"/>
                </mxCell>
                <mxCell id="20" value="CCOW&lt;br&gt;(port 2116)" style="rounded=1;whiteSpace=wrap;html=1;strokeColor=#36393d;fillColor=#eeeeee;fontColor=#171717;" parent="1" vertex="1">
                    <mxGeometry x="423" y="312" width="120" height="60" as="geometry"/>
                </mxCell>
                <mxCell id="22" value="" style="endArrow=classic;startArrow=classic;html=1;exitX=1;exitY=0.5;exitDx=0;exitDy=0;entryX=0;entryY=0.5;entryDx=0;entryDy=0;strokeColor=#36393d;fillColor=#eeeeee;fontColor=#171717;" parent="1" source="3" target="20" edge="1">
                    <mxGeometry width="50" height="50" relative="1" as="geometry">
                        <mxPoint x="338" y="262" as="sourcePoint"/>
                        <mxPoint x="388" y="212" as="targetPoint"/>
                    </mxGeometry>
                </mxCell>
                <mxCell id="26" value="QREADS - EPIC" style="rounded=1;whiteSpace=wrap;html=1;dashed=1;strokeColor=#36393d;fillColor=#eeeeee;fontColor=#171717;" parent="1" vertex="1">
                    <mxGeometry x="125" y="473" width="120" height="60" as="geometry"/>
                </mxCell>
                <mxCell id="27" value="port&lt;br&gt;3262" style="endArrow=classic;html=1;exitX=1;exitY=0.5;exitDx=0;exitDy=0;entryX=0;entryY=0.5;entryDx=0;entryDy=0;dashed=1;strokeColor=#36393d;fillColor=#eeeeee;fontColor=#171717;labelBackgroundColor=#FFFFFF;" parent="1" source="26" target="5" edge="1">
                    <mxGeometry width="50" height="50" relative="1" as="geometry">
                        <mxPoint x="255" y="517" as="sourcePoint"/>
                        <mxPoint x="389" y="513" as="targetPoint"/>
                    </mxGeometry>
                </mxCell>
                <mxCell id="28" value="" style="endArrow=classic;html=1;exitX=1;exitY=0.5;exitDx=0;exitDy=0;entryX=0.5;entryY=0;entryDx=0;entryDy=0;strokeColor=#36393d;fillColor=#eeeeee;fontColor=#171717;" parent="1" source="6" target="29" edge="1">
                    <mxGeometry width="50" height="50" relative="1" as="geometry">
                        <mxPoint x="609" y="199" as="sourcePoint"/>
                        <mxPoint x="890" y="350" as="targetPoint"/>
                    </mxGeometry>
                </mxCell>
                <mxCell id="29" value="QREADS" style="rounded=1;whiteSpace=wrap;html=1;strokeColor=#36393d;fillColor=#eeeeee;fontColor=#171717;dashed=1;" parent="1" vertex="1">
                    <mxGeometry x="654" y="171" width="120" height="60" as="geometry"/>
                </mxCell>
                <mxCell id="31" value="port&lt;br&gt;3262" style="endArrow=classic;html=1;exitX=0;exitY=0.5;exitDx=0;exitDy=0;entryX=1;entryY=0.5;entryDx=0;entryDy=0;dashed=1;strokeColor=#36393d;fillColor=#eeeeee;fontColor=#171717;labelBackgroundColor=#FFFFFF;" parent="1" source="29" target="10" edge="1">
                    <mxGeometry width="50" height="50" relative="1" as="geometry">
                        <mxPoint x="255" y="513" as="sourcePoint"/>
                        <mxPoint x="433" y="515" as="targetPoint"/>
                    </mxGeometry>
                </mxCell>
                <mxCell id="32" value="Single instance launch checks for other QREADS instances listening on port 3262" style="text;html=1;fillColor=#eeeeee;align=center;verticalAlign=middle;whiteSpace=wrap;rounded=0;strokeColor=#36393d;fontColor=#171717;dashed=1;" parent="1" vertex="1">
                    <mxGeometry x="636" y="381" width="120" height="86" as="geometry"/>
                </mxCell>
                <mxCell id="33" value="" style="endArrow=classic;html=1;exitX=0.5;exitY=0;exitDx=0;exitDy=0;entryX=0.5;entryY=1;entryDx=0;entryDy=0;strokeColor=#36393d;fillColor=#eeeeee;fontColor=#171717;" edge="1" parent="1" source="20" target="10">
                    <mxGeometry width="50" height="50" relative="1" as="geometry">
                        <mxPoint x="493" y="104" as="sourcePoint"/>
                        <mxPoint x="493" y="181" as="targetPoint"/>
                    </mxGeometry>
                </mxCell>
                <mxCell id="34" value="" style="endArrow=classic;html=1;exitX=1;exitY=0.5;exitDx=0;exitDy=0;entryX=0.5;entryY=1;entryDx=0;entryDy=0;strokeColor=#36393d;fillColor=#eeeeee;fontColor=#171717;" edge="1" parent="1" source="20" target="29">
                    <mxGeometry width="50" height="50" relative="1" as="geometry">
                        <mxPoint x="493" y="322" as="sourcePoint"/>
                        <mxPoint x="493" y="241" as="targetPoint"/>
                    </mxGeometry>
                </mxCell>
                <mxCell id="35" value="" style="endArrow=classic;html=1;entryX=0.5;entryY=0;entryDx=0;entryDy=0;strokeColor=#36393d;fillColor=#eeeeee;fontColor=#171717;" edge="1" parent="1" source="20" target="5">
                    <mxGeometry width="50" height="50" relative="1" as="geometry">
                        <mxPoint x="553" y="352" as="sourcePoint"/>
                        <mxPoint x="724" y="241" as="targetPoint"/>
                    </mxGeometry>
                </mxCell>
            </root>
        </mxGraphModel>
    </diagram>
</mxfile>
